Coordinates
version=1
nRows=24
nColumns=24
inDegrees=yes

Units are S.I. units (second, meters, Newtons, ...)
Angles are in degrees.

endheader
time	pelvis_tilt	pelvis_list	pelvis_rotation	pelvis_tx	pelvis_ty	pelvis_tz	hip_flexion_r	hip_adduction_r	hip_rotation_r	knee_angle_r	ankle_angle_r	subtalar_angle_r	mtp_angle_r	hip_flexion_l	hip_adduction_l	hip_rotation_l	knee_angle_l	ankle_angle_l	subtalar_angle_l	mtp_angle_l	lumbar_extension	lumbar_bending	lumbar_rotation
      2.28000000	     22.66928629	     -5.56810475	      9.87186215	      0.16553927	      0.85308298	      0.02638360	    -20.19052621	     13.36969084	    -20.58135833	     -5.66671266	     25.31381128	     17.24424319	     32.08648181	     -5.06378579	    -12.46360542	     -4.33396824	    -67.96850623	     17.32081749	     -1.14585623	     50.33163612	    -37.25076647	     11.15942250	     -8.72045589
      2.28500000	     22.67013133	     -5.35217961	      9.74537252	      0.17081359	      0.85359906	      0.02686346	    -20.75945556	     13.22448646	    -20.47277230	     -5.38230755	     25.43080008	     17.33915305	     32.04852593	     -4.57592800	    -12.06894250	     -4.52520787	    -67.22355260	     18.03792136	     -0.88828394	     50.30213847	    -37.30131369	     10.86584308	     -8.62843238
      2.29000000	     22.67831015	     -5.14425452	      9.64878703	      0.17610282	      0.85408039	      0.02728981	    -21.34759765	     13.09928716	    -20.36053085	     -5.06303190	     25.53129724	     17.44649823	     31.97415561	     -4.10210235	    -11.68602048	     -4.69725288	    -66.39882350	     18.74650400	     -0.60210442	     50.15994977	    -37.35165887	     10.59710319	     -8.54920203
      2.29500000	     22.66989466	     -4.95556745	      9.56644379	      0.18141254	      0.85449161	      0.02768098	    -21.91813470	     12.99391886	    -20.23772117	     -4.73964097	     25.64092688	     17.57911407	     31.28384163	     -3.61752210	    -11.31754557	     -4.86054983	    -65.52200609	     19.58369961	     -0.22653758	     48.31229651	    -37.37690065	     10.35267800	     -8.47119018
      2.30000000	     22.66493677	     -4.72718752	      9.46534435	      0.18671614	      0.85490045	      0.02809449	    -22.48503100	     12.83951299	    -20.10773738	     -4.44729735	     25.79878029	     17.61100544	     31.25320024	     -3.17279307	    -10.90647952	     -5.06029755	    -64.51174220	     20.16689370	     -0.05373286	     48.26926742	    -37.41350146	     10.05559258	     -8.42785163
      2.30500000	     22.68057332	     -4.50652777	      9.37035850	      0.19205833	      0.85530694	      0.02846740	    -23.09107128	     12.69858188	    -19.95722561	     -4.11502970	     25.88198130	     17.63556022	     31.19123740	     -2.77823549	    -10.50829137	     -5.27866100	    -63.40721049	     20.74205969	      0.06585749	     48.13996496	    -37.46507358	      9.77464594	     -8.37824717
      2.31000000	     22.70857254	     -4.28104255	      9.27308988	      0.19737201	      0.85570577	      0.02881584	    -23.71758450	     12.54932673	    -19.74621269	     -3.76442282	     25.93855227	     17.66689179	     31.06809551	     -2.41853935	    -10.09494810	     -5.48081669	    -62.21543191	     21.25344673	      0.15103341	     47.80970317	    -37.53405219	      9.49084144	     -8.30129618
      2.31500000	     22.72391794	     -4.05173924	      9.17344570	      0.20274873	      0.85604970	      0.02915768	    -24.31572936	     12.39245346	    -19.59771509	     -3.45958688	     26.05513915	     17.61323850	     30.96901140	     -2.07636279	     -9.68832586	     -5.73335434	    -60.93404308	     21.75194267	      0.18330144	     47.52761713	    -37.58290998	      9.19810747	     -8.27638977
      2.32000000	     22.74693371	     -3.82910697	      9.07335517	      0.20811037	      0.85635970	      0.02948172	    -24.92719722	     12.24029827	    -19.40970068	     -3.13659502	     26.13589643	     17.57629608	     30.86319466	     -1.76082312	     -9.28617069	     -5.98010048	    -59.57760823	     22.19645747	      0.17603232	     47.21517034	    -37.64175859	      8.91214171	     -8.23655077
      2.32500000	     22.76922661	     -3.59882990	      8.96730689	      0.21348958	      0.85665527	      0.02977572	    -25.53774001	     12.07351233	    -19.21332749	     -2.81911506	     26.21792880	     17.52032820	     30.75129678	     -1.47798401	     -8.87143083	     -6.23720906	    -58.12838710	     22.59124969	      0.14322968	     46.86757181	    -37.69926346	      8.61899353	     -8.20457091
      2.33000000	     22.79154987	     -3.38048015	      8.86364894	      0.21886371	      0.85689443	      0.03003684	    -26.13927926	     11.91443694	    -19.01969765	     -2.51653278	     26.30403677	     17.45613224	     30.64238876	     -1.21345125	     -8.47052657	     -6.49978325	    -56.61168551	     22.95488235	      0.10056723	     46.52419834	    -37.75780064	      8.34215649	     -8.17298782
      2.33500000	     22.82301100	     -3.15578167	      8.74849121	      0.22424532	      0.85713336	      0.03029252	    -26.74880191	     11.74226307	    -18.81353601	     -2.22309585	     26.37720010	     17.38667504	     30.52081416	     -0.99724733	     -8.06191041	     -6.77848437	    -54.99821111	     23.27076041	      0.05249803	     46.14403742	    -37.82683749	      8.05329292	     -8.14280785
      2.34000000	     22.82671753	     -2.96440639	      8.65121427	      0.22962239	      0.85726130	      0.03047851	    -27.31144900	     11.59849628	    -18.63103826	     -1.95774033	     26.49308401	     17.36724408	     29.77521561	     -0.75402196	     -7.68323543	     -7.03600013	    -53.36741521	     23.76372046	      0.19654534	     43.81020343	    -37.86302842	      7.80992104	     -8.13096543
      2.34500000	     22.85969820	     -2.74677078	      8.52697347	      0.23500944	      0.85742145	      0.03069680	    -27.90480463	     11.42001187	    -18.44727533	     -1.70224018	     26.60099956	     17.28877732	     29.74542320	     -0.59554142	     -7.28698719	     -7.34393437	    -51.60038913	     23.99879549	      0.19836109	     43.76397579	    -37.93564694	      7.52635001	     -8.11243757
      2.35000000	     22.89498139	     -2.53626172	      8.40452071	      0.24039424	      0.85754941	      0.03086729	    -28.49798471	     11.24544926	    -18.27333320	     -1.44679568	     26.68009070	     17.21042277	     29.70278610	     -0.46839672	     -6.89392477	     -7.65598474	    -49.75601220	     24.20630760	      0.19698400	     43.68861896	    -38.01083140	      7.25663079	     -8.10321325
      2.35500000	     22.92923802	     -2.33081081	      8.27702321	      0.24577450	      0.85764543	      0.03102167	    -29.07945220	     11.06790047	    -18.10883259	     -1.21271933	     26.76165813	     17.13689742	     29.65361853	     -0.37189755	     -6.50541321	     -7.98021894	    -47.83286334	     24.38914834	      0.24347015	     43.59957954	    -38.08692636	      6.98936727	     -8.10166509
      2.36000000	     22.97211797	     -2.13112076	      8.14846965	      0.25115387	      0.85770459	      0.03115507	    -29.66120325	     10.89197986	    -17.96356284	     -0.99695090	     26.84739085	     17.07800630	     29.59804717	     -0.31654631	     -6.12446362	     -8.31654471	    -45.83515255	     24.55541909	      0.34887406	     43.50602077	    -38.17116180	      6.72914570	     -8.10096114
      2.36500000	     23.00721989	     -1.93210713	      8.01351614	      0.25654127	      0.85773897	      0.03125654	    -30.22634983	     10.70754399	    -17.84568861	     -0.79873789	     26.93922740	     17.03793885	     29.53645629	     -0.29116362	     -5.73755568	     -8.66649410	    -43.75520897	     24.68990373	      0.51293135	     43.41311360	    -38.24946280	      6.47090908	     -8.11409254
      2.37000000	     23.05745830	     -1.73810982	      7.88010687	      0.26191778	      0.85774646	      0.03133526	    -30.79498305	     10.52437641	    -17.75360264	     -0.62627079	     27.03157025	     17.02847017	     29.46573637	     -0.31704829	     -5.35521477	     -9.02077454	    -41.59984085	     24.80098692	      0.74026593	     43.32475580	    -38.34498966	      6.21792662	     -8.12285769
      2.37500000	     23.10692093	     -1.54572578	      7.73979783	      0.26729471	      0.85772653	      0.03137882	    -31.35462392	     10.33360628	    -17.69046352	     -0.46938076	     27.13723373	     17.04464275	     29.38738552	     -0.38384234	     -4.96642792	     -9.39018923	    -39.35970231	     24.88111807	      1.03597797	     43.24677556	    -38.44071384	      5.96800253	     -8.14432622
      2.38000000	     23.15456556	     -1.35771450	      7.60166995	      0.27267895	      0.85767281	      0.03139411	    -31.90072156	     10.14285455	    -17.65693905	     -0.33888781	     27.25415069	     17.09114730	     29.30251375	     -0.48780647	     -4.57468207	     -9.76095176	    -37.04037504	     24.92636728	      1.39645380	     43.18400327	    -38.53320601	      5.72415270	     -8.17418220
      2.38500000	     23.20602261	     -1.17270447	      7.46483786	      0.27806956	      0.85757955	      0.03137108	    -32.44106706	      9.95006928	    -17.65872774	     -0.22926425	     27.38312732	     17.17105857	     29.21365973	     -0.63495765	     -4.17723259	    -10.13273026	    -34.65194845	     24.93720686	      1.81883787	     43.14103476	    -38.62816736	      5.48705484	     -8.21188767
      2.39000000	     23.27525846	     -0.98680055	      7.32220635	      0.28349884	      0.85747790	      0.03133152	    -33.00096456	      9.75266168	    -17.71220130	     -0.12327728	     27.49898634	     17.32524537	     29.10067430	     -0.85148801	     -3.77224628	    -10.51912900	    -32.18089355	     24.90742853	      2.29325914	     43.11705887	    -38.73691972	      5.24598484	     -8.21739285
      2.39500000	     23.33862429	     -0.81855013	      7.18507551	      0.28890638	      0.85732659	      0.03121641	    -33.53628693	      9.56322443	    -17.77881164	     -0.05356590	     27.64138850	     17.50936469	     28.97351135	     -1.09674028	     -3.36717722	    -10.88568166	    -29.64372629	     24.82535429	      2.81956057	     43.12325669	    -38.84327482	      5.03473334	     -8.25017702
